<svg width="61" height="54" viewBox="0 0 61 54" fill="none" xmlns="http://www.w3.org/2000/svg">
<path d="M0 53.5194C8.5945 54.9131 15.0578 53.2755 19.39 48.6065C23.7222 43.9375 25.8883 37.0385 25.8883 27.9095V0H0V26.8642H13.4158C13.9748 31.6029 13.311 35.5054 11.4244 38.5716C9.60767 41.6378 6.28866 42.9967 1.46735 42.6483L0 53.5194ZM35.1117 53.5194C43.7062 54.9131 50.1695 53.2755 54.5017 48.6065C58.8339 43.9375 61 37.0385 61 27.9095V0H35.1117V26.8642H48.5275C49.0865 31.6029 48.4227 35.5054 46.5361 38.5716C44.7194 41.6378 41.4003 42.9967 36.579 42.6483L35.1117 53.5194Z" fill="#595FF1"/>
</svg>
